<svg xmlns="http://www.w3.org/2000/svg" viewBox="0 0 512 512" fill="none">
  <defs>
    <linearGradient id="hallzee-grad-left" x1="0" y1="0" x2="0" y2="1">
      <stop offset="0%" stop-color="#76DC28" />
      <stop offset="50%" stop-color="#14B8A6" />
      <stop offset="100%" stop-color="#0284C7" />
    </linearGradient>
    <linearGradient id="hallzee-grad-right" x1="0" y1="0" x2="0" y2="1">
      <stop offset="0%" stop-color="#84E124" />
      <stop offset="50%" stop-color="#14B8A6" />
      <stop offset="100%" stop-color="#0284C7" />
    </linearGradient>
    <linearGradient id="hallzee-grad-arrow" x1="0" y1="0" x2="1" y2="0">
      <stop offset="0%" stop-color="#76DC28" />
      <stop offset="50%" stop-color="#14B8A6" />
      <stop offset="100%" stop-color="#0284C7" />
    </linearGradient>
  </defs>

  <!-- Left Pillar -->
  <path d="M96 24 L192 84 L192 192 L128 256 L192 320 L192 428 L96 488 Z" fill="url(#hallzee-grad-left)" />

  <!-- Right Pillar -->
  <path d="M416 24 L320 84 L320 192 L384 256 L320 320 L320 428 L416 488 Z" fill="url(#hallzee-grad-right)" />

  <!-- Center Double Arrow Shape with White Border -->
  <path d="M128 256 L192 192 L320 192 L384 256 L320 320 L192 320 Z" fill="#FFFFFF" />
  <path d="M152 256 L194 214 L194 240 L318 240 L318 214 L360 256 L318 298 L318 272 L194 272 L194 298 Z" fill="url(#hallzee-grad-arrow)" />
</svg>
